<?xml version="1.0" encoding="UTF-8"?><svg id="Ebene_1" xmlns="http://www.w3.org/2000/svg" viewBox="0 0 186.61 61.06"><defs><style>.cls-1{fill:#7bb728;}</style></defs><path class="cls-1" d="M0,24.23c.15-.03.33-.05.55-.06.22-.01.42-.02.61-.02s.38,0,.57.02c.19.01.37.03.53.06l2.46,11.98,2.96-11.98c.16-.03.34-.05.53-.06s.38-.02.55-.02c.16,0,.34,0,.54.02.2.01.37.03.52.06l2.98,12.1,2.5-12.1c.15-.03.3-.05.47-.06.17-.01.33-.02.49-.02.19,0,.38,0,.57.02.19.01.36.03.51.06l-3.46,14.38c-.16.03-.35.05-.56.06-.21.01-.41.02-.58.02-.19,0-.39,0-.62-.02-.23-.01-.43-.03-.62-.06l-2.84-11.26-2.88,11.26c-.19.03-.39.05-.61.06-.22.01-.42.02-.61.02-.16,0-.34,0-.55-.02-.21-.01-.39-.03-.55-.06L0,24.23Z"/><path class="cls-1" d="M20.08,29.91h-1.3c-.03-.11-.05-.23-.06-.37-.01-.14-.02-.28-.02-.41s0-.27.02-.41c.01-.14.03-.26.06-.37h3.24v10.26c-.15.03-.31.05-.49.06-.18.01-.34.02-.49.02-.13,0-.29,0-.47-.02-.18-.01-.34-.03-.49-.06v-8.7ZM19.64,26.09c-.03-.16-.04-.33-.05-.52,0-.19,0-.35,0-.5s0-.31,0-.5c0-.19.02-.35.05-.5.17-.03.36-.05.56-.06.2-.01.37-.02.52-.02s.32,0,.52.02c.2.01.38.03.54.06.03.15.04.31.05.5,0,.19,0,.35,0,.5s0,.31,0,.5c0,.19-.02.36-.05.52-.16.03-.34.05-.53.06-.19.01-.36.02-.51.02-.16,0-.34,0-.54-.02-.2-.01-.39-.03-.56-.06Z"/><path class="cls-1" d="M25.24,28.35c.15-.03.29-.05.42-.06s.27-.02.42-.02.29,0,.44.02c.15.01.28.03.4.06.04.2.08.46.12.79.04.33.06.6.06.83.28-.45.65-.85,1.11-1.18s1.05-.5,1.77-.5c.11,0,.22,0,.33,0,.11,0,.21.02.29.03.03.12.05.25.06.38.01.13.02.27.02.42,0,.16-.01.33-.03.5-.02.17-.04.34-.07.5-.11-.03-.22-.04-.33-.04h-.27c-.36,0-.7.05-1.03.15-.33.1-.62.28-.88.53-.26.25-.47.6-.62,1.04-.15.44-.23,1.01-.23,1.7v5.1c-.15.03-.31.05-.49.06-.18.01-.34.02-.49.02s-.31,0-.49-.02c-.18-.01-.35-.03-.51-.06v-10.26Z"/><path class="cls-1" d="M33.06,29.93h-1.56l-.08-.28,3.44-3.84h.16v2.54h2.6c.05.23.08.48.08.76,0,.15,0,.29-.02.42-.01.13-.03.27-.06.4h-2.6v4.68c0,.56.02,1.01.07,1.34.05.33.13.59.24.77.11.18.27.3.46.36.19.06.44.09.73.09.23,0,.44-.02.64-.05.2-.03.38-.07.54-.11.09.27.15.54.17.82.02.28.03.53.03.74-.27.07-.55.12-.84.15-.29.03-.61.05-.94.05-.96,0-1.71-.23-2.25-.7-.54-.47-.81-1.24-.81-2.32v-5.82Z"/><path class="cls-1" d="M39.66,36.75c.36.15.76.26,1.19.35.43.09.86.13,1.29.13.31,0,.6-.03.88-.1.28-.07.52-.17.73-.3.21-.13.37-.3.5-.49.13-.19.19-.41.19-.65,0-.27-.05-.49-.15-.66-.1-.17-.23-.32-.4-.44-.17-.12-.36-.22-.58-.31-.22-.09-.46-.17-.71-.25l-.7-.26c-.85-.32-1.47-.68-1.86-1.08s-.58-.94-.58-1.62c0-.91.32-1.63.97-2.16.65-.53,1.6-.8,2.85-.8.52,0,1.03.05,1.53.15s.94.22,1.31.35c-.03.27-.08.53-.15.8-.07.27-.16.51-.27.74-.29-.11-.64-.21-1.05-.31-.41-.1-.84-.15-1.31-.15-.49,0-.93.09-1.31.26-.38.17-.57.48-.57.92,0,.23.05.42.14.58.09.16.22.3.38.41.16.11.34.21.55.29.21.08.43.16.67.24l.88.3c.32.11.62.23.91.38.29.15.53.33.74.55.21.22.37.49.5.8.13.31.19.69.19,1.13,0,.49-.1.94-.3,1.35-.2.41-.48.75-.85,1.04s-.81.51-1.33.67-1.09.24-1.72.24-1.2-.04-1.68-.13-.93-.2-1.34-.35c.03-.27.08-.54.17-.81s.18-.54.29-.81Z"/><path class="cls-1" d="M55.78,36.83c.11.19.2.42.28.7.08.28.13.57.14.86-.79.31-1.69.46-2.7.46-1.71,0-2.99-.48-3.86-1.45s-1.3-2.27-1.3-3.91c0-.76.11-1.47.32-2.12.21-.65.53-1.22.95-1.7s.94-.86,1.57-1.14c.63-.28,1.35-.42,2.18-.42.56,0,1.05.03,1.48.1s.83.17,1.22.32c0,.23-.03.49-.09.79s-.14.56-.25.79c-.65-.23-1.4-.34-2.24-.34-1.03,0-1.79.34-2.3,1.02-.51.68-.76,1.58-.76,2.7,0,1.28.29,2.22.86,2.81s1.36.89,2.36.89c.4,0,.77-.03,1.11-.08.34-.05.68-.15,1.03-.28Z"/><path class="cls-1" d="M58.48,23.95c.15-.03.31-.05.49-.06.18-.01.34-.02.49-.02s.31,0,.5.02c.19.01.35.03.5.06v5.96c.12-.19.27-.39.45-.6.18-.21.4-.41.66-.59.26-.18.56-.33.9-.44.34-.11.72-.17,1.13-.17,1.17,0,2.04.34,2.61,1.01.57.67.85,1.67.85,2.99v6.5c-.15.03-.31.05-.49.06-.18.01-.34.02-.49.02s-.31,0-.49-.02c-.18-.01-.34-.03-.49-.06v-5.96c0-.95-.16-1.64-.47-2.09-.31-.45-.79-.67-1.43-.67-.36,0-.71.06-1.04.19-.33.13-.63.33-.88.6-.25.27-.45.63-.6,1.07-.15.44-.22.97-.22,1.6v5.26c-.15.03-.31.05-.5.06-.19.01-.35.02-.5.02-.13,0-.29,0-.48-.02-.19-.01-.35-.03-.5-.06v-14.66Z"/><path class="cls-1" d="M75.48,31.85c0-.79-.2-1.33-.6-1.64s-.98-.46-1.74-.46c-.47,0-.9.04-1.31.11-.41.07-.8.17-1.19.29-.25-.44-.38-.97-.38-1.58.45-.15.95-.26,1.5-.34s1.07-.12,1.58-.12c1.33,0,2.35.3,3.04.91s1.04,1.58,1.04,2.91v6.42c-.47.11-1.03.22-1.7.33-.67.11-1.35.17-2.04.17-.65,0-1.24-.06-1.77-.18-.53-.12-.97-.31-1.34-.58-.37-.27-.65-.61-.85-1.02-.2-.41-.3-.91-.3-1.5s.12-1.08.35-1.51c.23-.43.55-.79.95-1.08.4-.29.86-.5,1.38-.64s1.07-.21,1.64-.21c.43,0,.78,0,1.05.03.27.02.5.04.69.07v-.38ZM75.48,33.79c-.2-.03-.45-.05-.76-.08s-.57-.04-.78-.04c-.83,0-1.46.15-1.89.46s-.65.77-.65,1.4c0,.4.07.71.22.94.15.23.33.4.55.52.22.12.46.19.73.22s.52.04.76.04c.31,0,.62-.02.95-.05.33-.03.62-.08.87-.15v-3.26Z"/><path class="cls-1" d="M81.1,29.91h-1.68c-.05-.21-.08-.47-.08-.78s.03-.55.08-.78h1.68v-.72c0-1.27.32-2.23.95-2.89.63-.66,1.56-.99,2.77-.99.33,0,.63.02.88.05.25.03.49.08.72.15-.03.33-.06.62-.11.86-.05.24-.11.49-.19.74-.13-.03-.29-.06-.47-.09-.18-.03-.4-.05-.65-.05-.29,0-.56.03-.79.09-.23.06-.43.17-.6.34s-.3.4-.39.7c-.09.3-.14.68-.14,1.15v.66h2.62c.04.27.06.54.06.82,0,.25-.02.5-.06.74h-2.62v8.7c-.15.03-.31.05-.49.06-.18.01-.34.02-.49.02s-.31,0-.5-.02c-.19-.01-.35-.03-.5-.06v-8.7Z"/><path class="cls-1" d="M88.18,29.93h-1.56l-.08-.28,3.44-3.84h.16v2.54h2.6c.05.23.08.48.08.76,0,.15,0,.29-.02.42-.01.13-.03.27-.06.4h-2.6v4.68c0,.56.02,1.01.07,1.34.05.33.13.59.24.77.11.18.27.3.46.36.19.06.44.09.73.09.23,0,.44-.02.64-.05.2-.03.38-.07.54-.11.09.27.15.54.17.82.02.28.03.53.03.74-.27.07-.55.12-.84.15-.29.03-.61.05-.94.05-.96,0-1.71-.23-2.25-.7-.54-.47-.81-1.24-.81-2.32v-5.82Z"/><path class="cls-1" d="M96.44,33.97c.03,1.12.32,1.94.87,2.46.55.52,1.37.78,2.45.78.95,0,1.85-.17,2.7-.5.11.2.19.44.26.73s.11.57.12.85c-.44.19-.92.33-1.45.42-.53.09-1.11.14-1.75.14-.93,0-1.73-.13-2.4-.39-.67-.26-1.22-.63-1.65-1.1-.43-.47-.75-1.03-.95-1.68-.2-.65-.3-1.36-.3-2.13s.1-1.47.29-2.13c.19-.66.49-1.23.89-1.72.4-.49.9-.87,1.51-1.16.61-.29,1.32-.43,2.15-.43.71,0,1.33.12,1.86.36.53.24.98.57,1.34.99s.63.92.82,1.5.28,1.21.28,1.89c0,.19,0,.38-.02.59-.01.21-.03.38-.04.53h-6.98ZM101.52,32.49c0-.37-.05-.73-.15-1.07-.1-.34-.25-.64-.44-.89-.19-.25-.44-.46-.74-.61-.3-.15-.66-.23-1.07-.23-.81,0-1.44.25-1.87.74-.43.49-.7,1.18-.79,2.06h5.06Z"/><path class="cls-1" d="M106.08,28.35c.15-.03.29-.05.43-.06.14-.01.28-.02.43-.02s.28,0,.41.02c.13.01.26.03.41.06.04.2.08.47.12.81.04.34.06.62.06.85.13-.23.3-.45.51-.68.21-.23.44-.43.71-.61.27-.18.57-.33.92-.44.35-.11.73-.17,1.14-.17,1.17,0,2.04.34,2.6,1.01.56.67.84,1.67.84,2.99v6.5c-.15.03-.31.05-.5.06-.19.01-.35.02-.5.02s-.31,0-.49-.02c-.18-.01-.34-.03-.49-.06v-5.96c0-.95-.15-1.64-.44-2.09-.29-.45-.76-.67-1.4-.67-.37,0-.73.07-1.06.2-.33.13-.63.34-.88.62-.25.28-.46.64-.61,1.09-.15.45-.23.98-.23,1.61v5.2c-.15.03-.31.05-.49.06-.18.01-.34.02-.49.02s-.31,0-.5-.02c-.19-.01-.35-.03-.5-.06v-10.26Z"/><path class="cls-1" d="M41.41,1.08c.17,0,.34,0,.53.02.18.02.36.04.53.07v16.54c-.17.03-.35.05-.54.07-.19.02-.37.02-.54.02s-.35,0-.54-.02c-.19-.02-.37-.04-.54-.07l-7.22-12.35v12.35c-.17.03-.35.05-.54.07-.19.02-.38.02-.56.02-.2,0-.4,0-.59-.02-.19-.02-.36-.04-.52-.07V1.18c.17-.03.35-.05.54-.07.19-.02.37-.02.54-.02s.35,0,.54.02c.19.02.37.04.54.07l7.2,12.42V1.18c.18-.03.38-.05.58-.07.2-.02.4-.02.6-.02M41.41.18c-.22,0-.44,0-.67.03-.23.02-.44.04-.65.08l-.75.12v9.84L33.82.72l-.21-.36-.41-.07c-.2-.04-.4-.06-.63-.08-.22-.02-.42-.03-.61-.03s-.39,0-.61.03c-.22.02-.43.05-.63.08l-.74.13v18.03l.72.15c.19.04.4.07.62.08.21.02.43.03.66.03.21,0,.42,0,.63-.03.22-.02.43-.04.63-.08l.74-.13v-9.78l5.55,9.48.21.36.41.07c.2.04.41.06.63.08.22.02.42.03.61.03s.39,0,.61-.03c.22-.02.43-.04.63-.08l.74-.13V.42l-.74-.13c-.2-.04-.4-.06-.61-.08-.21-.02-.41-.03-.6-.03h0Z"/><path class="cls-1" d="M52.25,1.08c.21,0,.44,0,.67.02.23.02.45.04.67.07l5.36,16.54c-.18.03-.39.05-.62.07-.23.02-.45.02-.67.02-.2,0-.4,0-.61-.02-.21-.02-.4-.04-.59-.07l-1.15-3.82h-6.28l-1.13,3.82c-.2.03-.4.05-.6.07-.2.02-.4.02-.6.02-.21,0-.43,0-.63-.02-.21-.02-.4-.04-.56-.07L50.89,1.18c.2-.03.41-.05.64-.07.23-.02.47-.02.71-.02M49.65,11.85h5.04l-2.53-8.44-2.51,8.44M52.25.18c-.27,0-.52,0-.77.02-.26.02-.5.04-.72.08l-.55.08-.17.53-5.38,16.54-.32.98,1.01.18c.2.04.42.06.66.08.23.02.46.03.7.03.22,0,.44,0,.67-.03.22-.02.44-.04.67-.08l.56-.09.16-.55.94-3.17h4.94l.96,3.18.16.54.55.09c.21.04.43.06.67.08.23.02.45.03.68.03.23,0,.48,0,.73-.02.26-.02.5-.04.71-.08l1.03-.17-.32-.99L54.44.9l-.17-.54-.56-.08c-.24-.03-.48-.06-.73-.08-.25-.02-.49-.03-.73-.03h0ZM50.85,10.95l1.3-4.39,1.32,4.39h-2.62Z"/><path class="cls-1" d="M68.42.9c.87,0,1.62.06,2.25.18.63.12,1.19.27,1.68.44-.03.35-.1.68-.2.98-.1.3-.22.62-.36.95-.23-.08-.45-.15-.67-.21-.21-.06-.44-.12-.69-.16-.25-.05-.52-.08-.82-.1-.3-.02-.64-.03-1.02-.03-1.67,0-2.97.57-3.9,1.7-.93,1.13-1.39,2.77-1.39,4.9,0,1.09.13,2.03.39,2.83.26.8.63,1.46,1.1,1.98.48.52,1.05.91,1.71,1.17.67.26,1.41.39,2.24.39.64,0,1.23-.05,1.75-.16.52-.11,1.01-.26,1.47-.46.34.66.55,1.3.64,1.91-.64.28-1.3.48-1.98.6-.67.12-1.4.18-2.19.18-1.2,0-2.27-.2-3.23-.59-.96-.39-1.77-.95-2.43-1.68-.66-.73-1.17-1.61-1.52-2.66-.35-1.04-.53-2.22-.53-3.52s.18-2.51.53-3.58c.35-1.07.86-1.97,1.52-2.73.66-.75,1.46-1.33,2.42-1.74.95-.41,2.02-.61,3.2-.61M68.42,0c-1.3,0-2.49.23-3.55.68-1.07.46-1.99,1.12-2.74,1.97-.74.84-1.31,1.86-1.7,3.04-.38,1.15-.57,2.45-.57,3.86s.19,2.68.58,3.81c.39,1.15.96,2.15,1.7,2.97.75.83,1.67,1.47,2.75,1.91,1.06.43,2.26.65,3.57.65.83,0,1.62-.07,2.35-.2.74-.13,1.47-.35,2.17-.66l.64-.27-.1-.69c-.11-.71-.35-1.44-.73-2.18l-.38-.75-.78.34c-.4.17-.84.31-1.29.4-.46.09-.99.14-1.57.14-.71,0-1.36-.11-1.91-.33-.54-.21-.99-.52-1.38-.94-.39-.42-.69-.98-.91-1.65-.23-.7-.35-1.56-.35-2.55,0-1.91.4-3.37,1.19-4.33.75-.92,1.8-1.37,3.2-1.37.36,0,.68.01.95.03.26.02.51.05.72.09.22.04.42.09.61.14.2.06.41.12.63.2l.8.27.32-.78c.14-.35.27-.69.38-1.01.12-.36.2-.76.24-1.18l.06-.7-.67-.23c-.53-.18-1.13-.34-1.8-.47-.68-.13-1.5-.2-2.43-.2h0Z"/><path class="cls-1" d="M86.82,1.08c.2,0,.4,0,.61.02.21.02.4.04.59.07v16.54c-.17.03-.35.05-.55.07-.2.02-.41.02-.62.02-.2,0-.4,0-.61-.02-.21-.02-.4-.04-.56-.07v-7.66h-7.04v7.66c-.18.03-.37.05-.56.07-.19.02-.4.02-.61.02-.2,0-.4,0-.61-.02-.21-.02-.4-.04-.56-.07V1.18c.18-.03.38-.05.58-.07.2-.02.4-.02.6-.02s.4,0,.6.02c.2.02.39.04.58.07v6.81h7.04V1.18c.17-.03.35-.05.55-.07.2-.02.4-.02.6-.02M86.82.18c-.22,0-.44,0-.67.03-.23.02-.45.05-.64.08l-.74.13v6.66h-5.24V.41l-.75-.12c-.21-.03-.43-.06-.65-.08-.22-.02-.45-.03-.67-.03s-.44,0-.67.03c-.23.02-.44.04-.65.08l-.75.12v18.05l.74.13c.2.04.42.06.66.08.23.02.45.03.67.03.24,0,.47,0,.68-.03.22-.02.43-.04.64-.08l.75-.13v-7.52h5.24v7.51l.74.13c.2.04.42.06.66.08.23.02.45.03.67.03.24,0,.47,0,.69-.03.23-.02.45-.04.64-.08l.74-.13V.41l-.75-.12c-.21-.03-.43-.06-.66-.08-.23-.02-.46-.03-.68-.03h0Z"/><path class="cls-1" d="M103.24,1.08c.2,0,.4,0,.61.02.21.02.4.04.59.07v16.54c-.17.03-.35.05-.55.07-.2.02-.41.02-.62.02-.2,0-.4,0-.61-.02-.21-.02-.4-.04-.56-.07v-7.66h-7.04v7.66c-.18.03-.37.05-.56.07-.19.02-.4.02-.61.02-.2,0-.4,0-.61-.02-.21-.02-.4-.04-.56-.07V1.18c.18-.03.38-.05.58-.07.2-.02.4-.02.6-.02s.4,0,.6.02c.2.02.39.04.58.07v6.81h7.04V1.18c.17-.03.35-.05.55-.07.2-.02.4-.02.6-.02M103.24.18c-.22,0-.44,0-.67.03-.23.02-.45.05-.64.08l-.74.13v6.66h-5.24V.41l-.75-.12c-.21-.03-.43-.06-.65-.08-.22-.02-.45-.03-.67-.03s-.44,0-.67.03c-.23.02-.44.04-.65.08l-.75.12v18.05l.74.13c.2.04.42.06.66.08.23.02.45.03.67.03.24,0,.47,0,.68-.03.22-.02.43-.04.64-.08l.75-.13v-7.52h5.24v7.51l.74.13c.2.04.42.06.66.08.23.02.45.03.67.03.24,0,.47,0,.69-.03.23-.02.45-.04.64-.08l.74-.13V.41l-.75-.12c-.21-.03-.43-.06-.66-.08-.23-.02-.46-.03-.68-.03h0Z"/><path class="cls-1" d="M114.21,1.08c.21,0,.44,0,.67.02.23.02.45.04.67.07l5.36,16.54c-.18.03-.39.05-.62.07-.23.02-.45.02-.67.02-.2,0-.4,0-.61-.02-.21-.02-.4-.04-.59-.07l-1.15-3.82h-6.28l-1.13,3.82c-.2.03-.4.05-.6.07-.2.02-.4.02-.6.02-.21,0-.43,0-.63-.02-.21-.02-.4-.04-.56-.07l5.38-16.54c.2-.03.41-.05.64-.07.23-.02.47-.02.71-.02M111.61,11.85h5.04l-2.53-8.44-2.51,8.44M114.21.18c-.27,0-.52,0-.77.02-.26.02-.5.04-.72.08l-.55.08-.17.53-5.38,16.54-.32.98,1.01.18c.2.04.42.06.66.08.23.02.46.03.7.03.22,0,.44,0,.67-.03.22-.02.44-.04.67-.08l.56-.09.16-.55.94-3.17h4.94l.96,3.18.16.54.55.09c.21.04.43.06.67.08.23.02.45.03.68.03.23,0,.48,0,.73-.02.26-.02.5-.04.71-.08l1.03-.17-.32-.99L116.4.9l-.17-.54-.56-.08c-.24-.03-.48-.06-.73-.08-.25-.02-.49-.03-.73-.03h0ZM112.82,10.95l1.3-4.39,1.32,4.39h-2.62Z"/><path class="cls-1" d="M125.11,1.08c.2,0,.4,0,.6.02.2.02.39.04.58.07v14.47h6.49c.03.17.05.34.06.53,0,.18.01.35.01.51,0,.37-.02.71-.07,1.04h-8.81V1.18c.17-.03.35-.05.54-.07.19-.02.39-.02.61-.02M125.11.18c-.24,0-.47,0-.68.03-.22.02-.43.05-.63.08l-.74.13v18.19h10.49l.11-.77c.05-.36.08-.75.08-1.16,0-.16,0-.34-.01-.54,0-.23-.03-.45-.07-.65l-.13-.74h-6.34V.41l-.75-.12c-.21-.03-.43-.06-.65-.08-.22-.02-.45-.03-.67-.03h0Z"/><path class="cls-1" d="M143.3,1.18c.03.15.05.31.07.48.02.17.02.34.02.51s0,.35-.02.54c-.02.19-.04.36-.07.52h-4.3v14.49c-.35.05-.74.07-1.15.07s-.83-.02-1.2-.07V3.22h-4.3c-.03-.15-.05-.32-.07-.51-.02-.18-.02-.36-.02-.53s0-.34.02-.52.04-.34.07-.49h10.95M144.04.28h-12.42l-.15.72c-.04.18-.07.39-.08.6-.02.2-.03.4-.03.59s0,.39.03.6c.02.22.05.43.08.61l.15.72h4.14v14.38l.79.1c.4.05.84.08,1.31.08s.88-.03,1.27-.08l.78-.1V4.12h4.14l.15-.72c.04-.19.07-.4.08-.62.02-.22.03-.42.03-.61s0-.39-.03-.59c-.02-.2-.05-.4-.08-.58l-.15-.72h0Z"/><path class="cls-1" d="M147.72,1.08c.2,0,.4,0,.6.02.2.02.39.04.58.07v16.54c-.18.03-.37.05-.56.07-.19.02-.4.02-.61.02-.2,0-.4,0-.61-.02-.21-.02-.4-.04-.56-.07V1.18c.18-.03.38-.05.58-.07.2-.02.4-.02.6-.02M147.72.18c-.22,0-.44,0-.67.03-.23.02-.44.04-.65.08l-.75.12v18.05l.74.13c.2.04.42.06.66.08.23.02.45.03.67.03.24,0,.47,0,.68-.03.22-.02.43-.04.64-.08l.75-.13V.41l-.75-.12c-.21-.03-.43-.06-.65-.08-.22-.02-.45-.03-.67-.03h0Z"/><path class="cls-1" d="M160.62.9c.87,0,1.63.06,2.28.17.64.12,1.23.27,1.75.47-.03.35-.1.68-.2.98-.1.3-.22.62-.36.95-.43-.14-.89-.26-1.39-.37-.5-.11-1.12-.16-1.88-.16-.81,0-1.55.15-2.22.44-.67.29-1.23.72-1.7,1.28-.47.56-.83,1.25-1.09,2.07-.26.82-.39,1.76-.39,2.82s.13,2.03.4,2.82c.27.79.65,1.45,1.14,1.98.49.53,1.07.92,1.74,1.17.67.25,1.41.38,2.22.38.49,0,.92-.03,1.29-.08.37-.05.68-.12.94-.2v-6.46c.19-.03.38-.05.58-.07.2-.02.4-.02.6-.02s.4,0,.6.02c.2.02.38.04.55.07v8.07c-.32.14-.68.26-1.06.36-.38.1-.78.18-1.2.23s-.83.1-1.24.13c-.41.03-.8.05-1.17.05-1.23,0-2.33-.19-3.31-.57-.98-.38-1.81-.94-2.48-1.67-.68-.73-1.19-1.61-1.55-2.66-.36-1.04-.54-2.22-.54-3.54s.18-2.51.55-3.58c.37-1.07.89-1.97,1.57-2.73.68-.75,1.5-1.33,2.44-1.74.94-.41,1.99-.61,3.14-.61M160.62,0c-1.27,0-2.44.23-3.49.68-1.06.46-1.98,1.11-2.75,1.96-.76.84-1.35,1.86-1.76,3.04-.4,1.16-.6,2.46-.6,3.87s.2,2.7.59,3.84c.4,1.16.99,2.16,1.74,2.97.76.82,1.71,1.46,2.81,1.89,1.08.42,2.31.64,3.64.64.39,0,.81-.02,1.24-.05.43-.03.87-.08,1.29-.13.45-.06.89-.14,1.31-.25.42-.11.82-.24,1.18-.4l.55-.23v-9.42l-.74-.13c-.2-.04-.41-.06-.64-.08-.22-.02-.45-.03-.67-.03s-.44,0-.67.03c-.23.02-.44.04-.65.08l-.76.12v6.51c-.06,0-.11.02-.17.03-.32.05-.71.07-1.16.07-.7,0-1.34-.11-1.9-.32-.54-.21-1-.51-1.4-.94-.4-.43-.72-.99-.95-1.66-.24-.69-.36-1.54-.36-2.53s.12-1.82.35-2.54c.22-.7.53-1.3.93-1.77.38-.45.83-.79,1.37-1.03.55-.24,1.17-.36,1.86-.36s1.25.05,1.69.14c.47.1.9.22,1.3.35l.79.25.32-.77c.15-.35.27-.69.38-1.01.12-.36.2-.76.24-1.18l.06-.68-.64-.24c-.57-.22-1.22-.39-1.91-.52-.69-.12-1.51-.19-2.44-.19h0Z"/><path class="cls-1" d="M131.02,38.81c-.46-.46-.89-.91-1.51-1.58-1.39,1.3-2.95,1.85-4.73,1.85-3.14,0-4.97-2.11-4.97-4.54,0-2.21,1.32-3.72,3.17-4.73v-.07c-.84-1.06-1.34-2.23-1.34-3.38,0-1.97,1.42-3.98,4.1-3.98,2.02,0,3.58,1.34,3.58,3.43,0,1.7-.98,3.05-3.55,4.32v.07c1.37,1.58,2.9,3.36,3.94,4.51.74-1.13,1.25-2.69,1.56-4.73h1.92c-.43,2.54-1.13,4.56-2.33,5.98.86.91,1.7,1.82,2.66,2.86h-2.5ZM128.48,36.02c-.96-1.06-2.76-3.02-4.56-5.09-.86.55-2.09,1.58-2.09,3.29,0,1.85,1.37,3.26,3.31,3.26,1.39,0,2.57-.62,3.34-1.46ZM123.56,26.16c0,1.15.53,2.04,1.22,2.9,1.63-.94,2.69-1.8,2.69-3.17,0-.98-.55-2.09-1.87-2.09s-2.04,1.1-2.04,2.35Z"/><path class="cls-1" d="M91.99,52.48c.16-.03.33-.05.5-.06.17-.01.35-.02.52-.02s.35,0,.52.02c.17.01.33.03.48.06v7.02c-.28.12-.59.22-.92.31-.33.09-.68.15-1.04.2-.36.05-.72.08-1.08.11-.36.03-.7.04-1.02.04-1.07,0-2.03-.17-2.88-.5-.85-.33-1.57-.82-2.16-1.45s-1.04-1.4-1.35-2.31c-.31-.91-.47-1.93-.47-3.08s.16-2.18.48-3.11.78-1.72,1.37-2.37c.59-.65,1.3-1.16,2.12-1.51s1.73-.53,2.73-.53c.76,0,1.42.05,1.98.15.56.1,1.07.24,1.52.41-.03.31-.08.59-.17.85-.09.26-.19.54-.31.83-.37-.12-.78-.23-1.21-.32-.43-.09-.98-.14-1.63-.14-.71,0-1.35.13-1.93.38-.58.25-1.07.62-1.48,1.11-.41.49-.72,1.09-.95,1.8s-.34,1.53-.34,2.45.12,1.76.35,2.45c.23.69.56,1.26.99,1.72s.93.8,1.51,1.02c.58.22,1.22.33,1.93.33.43,0,.8-.02,1.12-.07.32-.05.59-.1.82-.17v-5.62Z"/><path class="cls-1" d="M96.98,45.54c.32-.04.67-.06,1.04-.06s.69.02,1,.06v8.16c0,.83.05,1.53.16,2.12.11.59.28,1.06.52,1.43.24.37.56.64.95.81s.88.26,1.45.26,1.05-.09,1.44-.26c.39-.17.7-.44.94-.81s.41-.84.52-1.43c.11-.59.16-1.29.16-2.12v-8.16c.33-.04.67-.06,1.02-.06.37,0,.72.02,1.04.06v8.52c0,.96-.09,1.82-.27,2.58-.18.76-.47,1.4-.88,1.92-.41.52-.94.92-1.59,1.19-.65.27-1.45.41-2.38.41s-1.73-.14-2.38-.41c-.65-.27-1.18-.67-1.59-1.19-.41-.52-.7-1.16-.88-1.92-.18-.76-.27-1.62-.27-2.58v-8.52Z"/><path class="cls-1" d="M113.07,47.32h-3.74c-.03-.13-.05-.28-.06-.44-.01-.16-.02-.31-.02-.46s0-.3.02-.45c.01-.15.03-.3.06-.43h9.52c.03.13.05.27.06.42.01.15.02.29.02.44s0,.3-.02.47c-.01.17-.03.32-.06.45h-3.74v12.6c-.31.04-.64.06-1,.06s-.72-.02-1.04-.06v-12.6Z"/><path class="cls-1" d="M127.67,45.46c.17,0,.35,0,.52.02.17.01.34.03.5.06v12.58h5.64c.03.15.04.3.05.46,0,.16,0,.31,0,.44,0,.32-.02.62-.06.9h-7.66v-14.38c.15-.03.3-.05.47-.06.17-.01.34-.02.53-.02M127.67,44.56c-.21,0-.41,0-.6.02-.2.02-.38.04-.56.07l-.74.13v16.03h9.34l.11-.77c.05-.32.07-.67.07-1.03,0-.14,0-.3-.01-.47-.01-.22-.03-.41-.07-.59l-.14-.73h-5.49v-12.44l-.75-.13c-.19-.03-.38-.05-.58-.07-.2-.01-.39-.02-.59-.02h0Z"/><path class="cls-1" d="M146.13,45.54c.04.27.06.56.06.88,0,.15,0,.3-.01.46,0,.16-.02.31-.05.44h-5.86v4.12h4.68c.03.13.05.28.06.43s.02.3.02.45,0,.3-.02.46c-.01.16-.03.31-.06.44h-4.68v4.92h6.02c.04.27.06.56.06.88,0,.15,0,.3,0,.46s-.02.31-.05.44h-8.06v-14.38h7.9M146.91,44.64h-9.58v16.18h9.7l.14-.73c.04-.18.06-.37.07-.58,0-.17.01-.34.01-.5,0-.37-.02-.71-.07-1.01l-.12-.77h-5.9v-3.12h4.52l.14-.72c.03-.16.06-.34.07-.54.02-.19.02-.36.02-.54s0-.35-.02-.53c-.02-.19-.04-.36-.07-.52l-.14-.73h-4.52v-2.32h5.7l.14-.72c.04-.18.06-.37.07-.58,0-.17.01-.34.01-.5,0-.36-.02-.7-.07-1.01l-.12-.77h0Z"/><path class="cls-1" d="M153.91,45.32c.76,0,1.45.07,2.08.2.63.13,1.16.35,1.61.65.45.3.79.69,1.04,1.16.25.47.37,1.05.37,1.73,0,.41-.06.8-.19,1.15-.13.35-.3.67-.51.94-.21.27-.46.5-.74.68-.28.18-.57.31-.86.39.37.04.75.14,1.13.3.38.16.72.39,1.03.68.31.29.56.66.75,1.11.19.45.29.99.29,1.63,0,.77-.15,1.43-.46,1.97-.31.54-.72.98-1.25,1.31-.53.33-1.15.57-1.86.72-.71.15-1.48.22-2.29.22-.51,0-1.06-.02-1.66-.07-.6-.05-1.17-.1-1.7-.17v-14.38c.33-.07.8-.12,1.4-.16.6-.04,1.21-.06,1.82-.06M152.71,51.54h1.46c.91,0,1.6-.2,2.08-.59.48-.39.72-.98.72-1.77s-.26-1.33-.77-1.7c-.51-.37-1.21-.56-2.09-.56-.27,0-.52,0-.77.02-.25.01-.46.03-.63.06v4.54M154.27,58.42c.48,0,.93-.04,1.35-.12.42-.08.79-.22,1.11-.41.32-.19.57-.45.76-.78.19-.33.28-.74.28-1.25s-.09-.91-.26-1.25c-.17-.34-.41-.61-.71-.82-.3-.21-.66-.35-1.07-.44s-.86-.13-1.34-.13h-1.68v5.12c.19.03.42.05.71.06.29.01.57.02.85.02M153.91,44.42c-.63,0-1.26.02-1.88.06-.65.04-1.14.1-1.52.18l-.72.15v15.91l.79.1c.54.07,1.13.13,1.74.17.62.05,1.2.07,1.73.07.87,0,1.7-.08,2.47-.24.82-.17,1.54-.45,2.16-.84.65-.41,1.17-.96,1.55-1.63.38-.67.58-1.49.58-2.41,0-.76-.12-1.43-.36-1.99-.24-.56-.56-1.03-.95-1.4-.22-.21-.46-.4-.72-.56.09-.09.17-.19.25-.29.27-.35.49-.75.65-1.19.16-.45.24-.94.24-1.45,0-.82-.16-1.54-.47-2.15-.32-.61-.77-1.11-1.34-1.49-.54-.36-1.19-.63-1.93-.78-.69-.15-1.45-.22-2.27-.22h0ZM153.61,47.82c.16,0,.33,0,.5,0,.68,0,1.21.13,1.56.39.19.14.4.37.4.97,0,.68-.22.94-.39,1.07-.31.26-.82.39-1.51.39h-.56v-2.81h0ZM153.61,54.12h.78c.42,0,.8.04,1.15.11.29.06.55.16.75.3.17.12.31.28.42.49.11.21.16.49.16.84s-.05.62-.16.8c-.11.19-.26.34-.44.46-.23.14-.5.24-.81.3-.36.07-.76.1-1.18.1-.22,0-.44,0-.66-.01v-3.39h0Z"/><path class="cls-1" d="M171.59,45.54c.04.27.06.56.06.88,0,.15,0,.3,0,.46,0,.16-.02.31-.05.44h-5.86v4.12h4.68c.03.13.05.28.06.43.01.15.02.3.02.45s0,.3-.02.46c-.01.16-.03.31-.06.44h-4.68v4.92h6.02c.04.27.06.56.06.88,0,.15,0,.3,0,.46,0,.16-.02.31-.05.44h-8.06v-14.38h7.9M172.37,44.64h-9.58v16.18h9.69l.15-.72c.04-.18.06-.37.07-.58,0-.18.01-.34.01-.5,0-.36-.02-.7-.07-1.01l-.12-.77h-5.89v-3.12h4.52l.14-.72c.03-.16.06-.34.07-.54.02-.19.02-.37.02-.54s0-.35-.02-.52c-.02-.19-.04-.37-.07-.53l-.14-.73h-4.52v-2.32h5.7l.14-.72c.04-.18.06-.37.07-.58,0-.17.01-.34.01-.5,0-.37-.02-.71-.07-1.01l-.12-.77h0Z"/><path class="cls-1" d="M184.79,45.46c.15,0,.3,0,.46.02.16.01.31.03.46.06v14.38c-.15.03-.3.05-.47.06-.17.01-.32.02-.47.02s-.3,0-.47-.02c-.17-.01-.32-.03-.47-.06l-6.28-10.74v10.74c-.15.03-.3.05-.47.06-.17.01-.33.02-.49.02-.17,0-.34,0-.51-.02-.17-.01-.32-.03-.45-.06v-14.38c.15-.03.3-.05.47-.06.17-.01.32-.02.47-.02s.3,0,.47.02c.17.01.32.03.47.06l6.26,10.8v-10.8c.16-.03.33-.05.5-.06.17-.01.35-.02.52-.02M184.79,44.56c-.2,0-.39,0-.59.02-.2.02-.39.04-.58.07l-.75.13v8.21l-4.58-7.9-.21-.36-.41-.07c-.18-.03-.36-.06-.56-.07-.19-.02-.37-.02-.54-.02s-.35,0-.54.02c-.2.02-.38.04-.56.07l-.74.13v15.87l.73.14c.16.03.35.06.55.07.19.02.39.02.58.02.18,0,.37,0,.56-.02.2-.02.38-.04.56-.07l.74-.13v-8.17l4.6,7.87.21.36.41.07c.17.03.36.06.56.07.19.02.37.02.54.02s.35,0,.54-.02c.2-.02.39-.04.56-.07l.74-.13v-15.88l-.74-.14c-.17-.03-.36-.06-.55-.07-.18-.02-.36-.02-.53-.02h0Z"/></svg>