<?xml version="1.0" encoding="UTF-8"?>
<svg id="Ebene_1" data-name="Ebene 1" xmlns="http://www.w3.org/2000/svg" xmlns:xlink="http://www.w3.org/1999/xlink" viewBox="0 0 119.93 24.68">
  <defs>
    <style>
      .cls-1 {
        fill: #7bb728;
      }

      .cls-1, .cls-2, .cls-3, .cls-4, .cls-5, .cls-6 {
        stroke-width: 0px;
      }

      .cls-2 {
        fill: #3c3c3b;
      }

      .cls-3 {
        fill: #539c2a;
      }

      .cls-4 {
        fill: #3a8528;
      }

      .cls-5 {
        fill: none;
      }

      .cls-6 {
        fill: #be1622;
      }

      .cls-7 {
        clip-path: url(#clippath);
      }
    </style>
    <clipPath id="clippath">
      <path class="cls-5" d="M111.27,3.83L114.72,0l1.51,4.94c-.69-.5-1.49-.87-2.37-1.07-.88-.2-1.76-.2-2.59-.04ZM106.06,9.61l-3.28,3.64,4.79,1.06c-1.08-1.27-1.65-2.96-1.51-4.7ZM117.46,11.26c.61-2.76-1.13-5.5-3.88-6.11-1.83-.41-3.65.22-4.85,1.5.71-.33,1.57-.09,2,.6.47.75.25,1.76-.5,2.24-.75.48-1.73.26-2.2-.49-.18-.29-.26-.62-.24-.95-.14.31-.25.64-.33.98-.61,2.73,1.1,5.45,3.82,6.1l.13.03c2.73.57,5.43-1.17,6.04-3.9ZM118.5,12.36c-.6,1.64-1.83,2.92-3.34,3.62l4.77,1.05-1.43-4.68Z"/>
    </clipPath>
  </defs>
  <g>
    <path class="cls-4" d="M43.63,20.98c0,1.04-.97,1.62-2.17,1.62h-1.59v-.73h1.59s1.22,0,1.21-.89c-.01-1.07-3.38-1.73-3.38-3.23,0-1.05.97-1.62,2.17-1.62h1.57v.74h-1.57s-1.22,0-1.22.88c0,1.07,3.39,1.76,3.39,3.23Z"/>
    <path class="cls-4" d="M45.64,18.44v2.75s0,.67.77.67h.4v.74h-.4s-1.6,0-1.6-1.42v-2.75h-.57v-.12c.45-.57.85-1.09,1.3-1.66h.11v1.04h1.17v.74h-1.17Z"/>
    <path class="cls-4" d="M50.05,20.52h-1.33v.67s0,.67.76.67h2.17v.74h-2.17s-1.6,0-1.6-1.42v-2.09s0-1.41,1.6-1.41h.57s1.6,0,1.6,1.41c0,0,0,1.42-1.6,1.42ZM50.05,19.77s.76,0,.76-.67-.76-.67-.76-.67h-.57s-.76,0-.76.67v.67h1.33Z"/>
    <path class="cls-4" d="M52.84,17.69h.84v3.5c0,.67.74.67.74.67h.59c.74,0,.74-.67.74-.67v-3.5h.84v4.91h-.34l-.83-.74c0,.74-.42.74-.42.74h-.59s-1.59,0-1.59-1.42v-3.5Z"/>
    <path class="cls-4" d="M60.29,20.52h-1.33v.67s0,.67.76.67h2.17v.74h-2.17s-1.6,0-1.6-1.42v-2.09s0-1.41,1.6-1.41h.57s1.6,0,1.6,1.41c0,0,0,1.42-1.6,1.42ZM60.29,19.77s.76,0,.76-.67-.76-.67-.76-.67h-.57s-.76,0-.76.67v.67h1.33Z"/>
    <path class="cls-4" d="M64.4,21.86h1.17v.74h-2.59v-.74h.59v-4.17h.33l.84.73s0-.73.4-.73h1v.74h-1s-.74,0-.74.67v2.76Z"/>
    <path class="cls-6" d="M66.86,21.68h1.02v.91h-1.02v-.91Z"/>
    <path class="cls-4" d="M72.6,19.19c.36.19,1.03.66,1.03,1.59,0,1.02-.91,1.83-2.05,1.83h-2.29v-6.48h2.12c1.1,0,1.99.79,1.99,1.79,0,.65-.56,1.08-.8,1.27ZM70.13,16.87v2.07h1.28c.63,0,1.15-.47,1.15-1.03s-.52-1.04-1.15-1.04h-1.28ZM72.79,20.77c0-.6-.54-1.08-1.21-1.08h-1.45v2.17h1.45c.67,0,1.21-.49,1.21-1.09Z"/>
    <path class="cls-4" d="M77.01,20.52h-1.33v.67s0,.67.76.67h2.17v.74h-2.17s-1.6,0-1.6-1.42v-2.09s0-1.41,1.6-1.41h.57s1.6,0,1.6,1.41c0,0,0,1.42-1.6,1.42ZM77.01,19.77s.76,0,.76-.67-.76-.67-.76-.67h-.57s-.76,0-.76.67v.67h1.33Z"/>
    <path class="cls-4" d="M81.06,21.86h1.17v.74h-2.59v-.74h.59v-4.17h.33l.84.73s0-.73.4-.73h1v.74h-1s-.74,0-.74.67v2.76Z"/>
    <path class="cls-4" d="M87.39,19.1v3.5h-.35l-.82-.74c0,.74-.43.74-.43.74h-.57s-1.6,0-1.6-1.42,1.6-1.42,1.6-1.42h1.33v-.67c0-.67-.76-.67-.76-.67h-1.81v-.74h1.81s1.6,0,1.6,1.41ZM86.55,20.52h-1.33s-.76,0-.76.67.76.67.76.67h.57s.76,0,.76-.67v-.67Z"/>
    <path class="cls-4" d="M90.03,18.44v2.75s0,.67.77.67h.4v.74h-.4s-1.6,0-1.6-1.42v-2.75h-.57v-.12c.45-.57.85-1.09,1.3-1.66h.11v1.04h1.17v.74h-1.17Z"/>
    <path class="cls-4" d="M92.47,17.69h.84v3.5c0,.67.74.67.74.67h.59c.74,0,.74-.67.74-.67v-3.5h.84v4.91h-.34l-.83-.74c0,.74-.41.74-.41.74h-.59s-1.59,0-1.59-1.42v-3.5Z"/>
    <path class="cls-4" d="M101.63,22.6h-.84v-3.5c0-.67-.76-.67-.76-.67h-.57c-.76,0-.76.67-.76.67v3.5h-.84v-4.91h.35l.82.74c0-.74.43-.74.43-.74h.57s1.6-.02,1.6,1.39v3.52Z"/>
    <path class="cls-4" d="M103.75,22.6s-.89-.11-.89-1.01c0-.41.42-.7.86-.88-.31-.28-.51-.64-.51-1.08v-.53s0-1.41,1.59-1.41h2.17v.48l-.84.26c.84,0,.84.67.84.67v.53s0,1.41-1.6,1.41h-.57s-.42,0-.9-.22c-.18.1-.32.27-.32.47,0,.57.64.57.64.57h1.52s1.57,0,1.57,1.42c0,0,0,1.41-1.57,1.41h-1.42s-1.46,0-1.46-1.2c0-.88.86-.88.89-.88ZM104.32,22.6c-.15,0-.74.09-.74.67,0,.67.74.67.74.67h1.42s.74,0,.74-.67c0,0,0-.67-.74-.67h-1.42ZM106.12,19.1s0-.67-.76-.67h-.57s-.76,0-.76.67v.53s0,.67.76.67h.57s.76,0,.76-.67v-.53Z"/>
  </g>
  <g class="cls-7">
    <g>
      <polygon class="cls-1" points="102.79 13.25 113.36 11.08 111.19 3.91 102.77 13.25 102.79 13.25"/>
      <polygon class="cls-3" points="113.36 11.08 102.79 13.25 114.82 15.91 113.36 11.08"/>
      <polygon class="cls-3" points="111.19 3.91 113.36 11.08 117.83 10.17 114.72 0 111.19 3.91"/>
      <polygon class="cls-4" points="117.83 10.17 113.36 11.08 114.82 15.91 119.93 17.04 117.83 10.17"/>
    </g>
  </g>
  <g>
    <path class="cls-2" d="M3.38,19.09c.59.99,1.52,2.51,2.17,3.58h-1.26l-2.12-3.51h-1.06v3.51H0v-8.73h2.85s2.85,0,2.85,2.6c0,1.69-1.37,2.32-2.32,2.55ZM1.1,18.15h1.84c.35-.04,1.65-.24,1.65-1.62,0-1.6-1.75-1.6-1.75-1.6h-1.75v3.22Z"/>
    <path class="cls-2" d="M9.51,21.66v1h-2.63v-1h.77v-5.63h1.1v5.63h.75ZM8.76,14.23h-1.1v-1.01h1.1v1.01Z"/>
    <path class="cls-2" d="M13.97,19.86h-1.75v.9s0,.91.99.91h2.85v1h-2.85s-2.1,0-2.1-1.91v-2.82s0-1.9,2.1-1.9h.75s2.1,0,2.1,1.9c0,0,0,1.92-2.1,1.92ZM13.97,18.84s.99,0,.99-.91-.99-.9-.99-.9h-.75s-.99,0-.99.9v.91h1.75Z"/>
    <path class="cls-2" d="M19.96,16.04h1.75v-2.82h1.1v9.45h-.45l-1.09-1s0,1-.54,1h-.77s-2.08,0-2.08-1.91v-2.82c0-1.9,2.08-1.9,2.08-1.9ZM18.99,20.75s0,.91.98.91h.77s.98,0,.98-.91v-3.72h-1.75s-.98,0-.98.9v2.82Z"/>
    <path class="cls-2" d="M27.9,19.86h-1.75v.9s0,.91.99.91h2.85v1h-2.85s-2.1,0-2.1-1.91v-2.82s0-1.9,2.1-1.9h.75s2.1,0,2.1,1.9c0,0,0,1.92-2.1,1.92ZM27.9,18.84s.99,0,.99-.91-.99-.9-.99-.9h-.75s-.99,0-.99.9v.91h1.75Z"/>
    <path class="cls-2" d="M33.18,21.66h1.54v1h-3.39v-1h.77v-5.63h.43l1.1.99s0-.99.53-.99h1.31v1h-1.31s-.98,0-.98.9v3.73Z"/>
  </g>
</svg>