<?xml version="1.0" encoding="UTF-8"?>
<svg id="Ebene_2" data-name="Ebene 2" xmlns="http://www.w3.org/2000/svg" xmlns:xlink="http://www.w3.org/1999/xlink" viewBox="0 0 58.75 58.33">
  <defs>
    <style>
      .cls-1 {
        fill: #7bb728;
      }

      .cls-1, .cls-2, .cls-3, .cls-4 {
        stroke-width: 0px;
      }

      .cls-2 {
        fill: #539c2a;
      }

      .cls-3 {
        fill: #3a8528;
      }

      .cls-4 {
        fill: none;
      }

      .cls-5 {
        clip-path: url(#clippath);
      }
    </style>
    <clipPath id="clippath">
      <path class="cls-4" d="M29.1,13.11L40.93,0l5.17,16.91c-2.36-1.71-5.1-2.98-8.12-3.66-3.01-.67-6.02-.68-8.87-.14ZM11.24,32.9L0,45.37l16.41,3.62c-3.7-4.37-5.66-10.12-5.16-16.09ZM50.3,38.55c2.1-9.44-3.87-18.82-13.3-20.92-6.26-1.39-12.49.76-16.59,5.13,2.45-1.14,5.39-.32,6.86,2.04,1.61,2.58.84,6.02-1.71,7.68-2.55,1.65-5.92.9-7.53-1.68-.62-1-.89-2.13-.83-3.24-.48,1.06-.85,2.19-1.12,3.37-2.09,9.37,3.78,18.68,13.09,20.87l.46.1c9.35,1.94,18.59-4,20.68-13.35ZM53.86,42.32c-2.06,5.62-6.26,10.01-11.45,12.41l16.34,3.61-4.89-16.01Z"/>
    </clipPath>
  </defs>
  <g id="Ebene_1-2" data-name="Ebene 1">
    <g class="cls-5">
      <g>
        <polygon class="cls-1" points=".06 45.38 36.25 37.95 28.84 13.4 0 45.37 .06 45.38"/>
        <polygon class="cls-2" points="36.25 37.95 .06 45.38 41.24 54.47 36.25 37.95"/>
        <polygon class="cls-2" points="28.84 13.4 36.25 37.95 51.56 34.81 40.93 0 28.84 13.4"/>
        <polygon class="cls-3" points="51.56 34.81 36.25 37.95 41.24 54.47 58.75 58.33 51.56 34.81"/>
      </g>
    </g>
  </g>
</svg>