<?xml version="1.0" standalone="no"?>
<!DOCTYPE svg PUBLIC "-//W3C//DTD SVG 20010904//EN"
 "http://www.w3.org/TR/2001/REC-SVG-20010904/DTD/svg10.dtd">
<svg version="1.0" xmlns="http://www.w3.org/2000/svg"
 width="192.000000pt" height="192.000000pt" viewBox="0 0 192.000000 192.000000"
 preserveAspectRatio="xMidYMid meet">
<metadata>
Created by potrace 1.14, written by Peter Selinger 2001-2017
</metadata>
<g transform="translate(0.000000,192.000000) scale(0.100000,-0.100000)"
fill="#000000" stroke="none">
<path d="M1150 1519 c-69 -72 -126 -134 -128 -138 -1 -4 26 -7 60 -6 80 1 155
-18 241 -60 37 -19 67 -30 67 -26 0 4 -13 54 -29 112 -16 57 -37 137 -47 177
-10 39 -23 72 -29 71 -5 0 -66 -59 -135 -130z"/>
<path d="M983 1234 c-220 -57 -360 -271 -321 -487 48 -265 338 -404 579 -278
51 26 129 87 129 101 0 3 -15 4 -32 3 -45 -5 -98 26 -122 72 -77 149 116 277
223 147 30 -35 31 -36 32 -12 1 14 2 43 3 65 3 50 -18 144 -43 193 -44 85
-138 164 -234 194 -51 16 -158 17 -214 2z"/>
<path d="M395 735 c-72 -75 -131 -138 -133 -139 -1 -2 77 -22 173 -46 97 -23
178 -40 181 -37 2 2 -8 25 -22 51 -38 68 -55 130 -63 224 l-6 83 -130 -136z"/>
<path d="M1537 592 c-28 -60 -84 -129 -136 -169 -28 -21 -50 -41 -50 -44 -1
-3 9 -18 22 -32 17 -20 46 -32 127 -52 58 -15 113 -28 123 -30 9 -2 22 -7 27
-10 16 -10 13 8 -31 174 -23 86 -44 166 -46 179 -7 31 -15 27 -36 -16z"/>
</g>
</svg>
